<svg xmlns="http://www.w3.org/2000/svg" viewBox="0 0 1536 695" preserveAspectRatio="xMidYMid" width="1536" height="695" xmlns:xlink="http://www.w3.org/1999/xlink" style="shape-rendering:auto;display:block;background-position-x:0%;background-position-y:0%;background-size:auto;background-origin:padding-box;background-clip:border-box;background:scroll rgba(0, 0, 0, 0) none  repeat;width:1536px;height:695px;;animation:none"><g><linearGradient y2="0" y1="0" x2="1" x1="0" id="lg-0.2545556709434116"><stop offset="0" stop-color="#ff00ff"></stop>

  
<stop offset="1" stop-color="#00ffff"></stop></linearGradient>
<path opacity="0.4" fill="url(#lg-0.2545556709434116)" d="M 0 0 M 0 647.426 Q 153.6 614.861 307.2 605.437 T 614.4 577.853 T 921.6 585.83 T 1228.8 502.051 T 1536 509.892 L 1536 173.108 Q 1382.4 192.106 1228.8 187.012 T 921.6 167.981 T 614.4 122.424 T 307.2 111.037 T 0 103.075 Z" style="fill:url('#lg-0.2545556709434116');opacity:0.4;;animation:none"></path>
<path opacity="0.4" fill="url(#lg-0.2545556709434116)" d="M 0 0 M 0 657.545 Q 153.6 616.901 307.2 609.562 T 614.4 598.117 T 921.6 550.823 T 1228.8 560.807 T 1536 492.527 L 1536 191.887 Q 1382.4 212.428 1228.8 202.884 T 921.6 118.018 T 614.4 96.641 T 307.2 123.426 T 0 79.0141 Z" style="fill:url('#lg-0.2545556709434116');opacity:0.4;;animation:none"></path>
<path opacity="0.4" fill="url(#lg-0.2545556709434116)" d="M 0 0 M 0 621.754 Q 153.6 627.392 307.2 622.304 T 614.4 604.025 T 921.6 518.605 T 1228.8 502.389 T 1536 500.567 L 1536 164.232 Q 1382.4 178.938 1228.8 173.995 T 921.6 153.529 T 614.4 128.625 T 307.2 79.4986 T 0 68.0165 Z" style="fill:url('#lg-0.2545556709434116');opacity:0.4;;animation:none"></path>
<path opacity="0.4" fill="url(#lg-0.2545556709434116)" d="M 0 0 M 0 639.624 Q 153.6 594.072 307.2 590.743 T 614.4 578.47 T 921.6 566.788 T 1228.8 502.419 T 1536 494.067 L 1536 206.146 Q 1382.4 163.724 1228.8 161.449 T 921.6 140.549 T 614.4 116.998 T 307.2 108.78 T 0 96.7595 Z" style="fill:url('#lg-0.2545556709434116');opacity:0.4;;animation:none"></path>
<g></g></g><!-- [ldio] generated by https://loading.io --></svg>