<svg xmlns="http://www.w3.org/2000/svg" viewBox="0 0 1536 695" preserveAspectRatio="xMidYMid" width="1536" height="695" xmlns:xlink="http://www.w3.org/1999/xlink" style="shape-rendering:auto;display:block;background-position-x:0%;background-position-y:0%;background-size:auto;background-origin:padding-box;background-clip:border-box;background:scroll rgba(0, 0, 0, 0) none  repeat;width:1536px;height:695px;;animation:none"><g style="transform:matrix(-1, 0, 0, -1, 1536, 695);;animation:none"><linearGradient y2="0" y1="0" x2="1" x1="0" id="lg-o578w6yh81n"><stop offset="0" stop-color="#ff00ff"></stop>

  
<stop offset="1" stop-color="#00ffff"></stop></linearGradient>
<path opacity="0.4" fill="url(#lg-o578w6yh81n)" d="M 0 0 L 0 470.3 Q 153.6 453.13 307.2 433.13 T 614.4 331.37 T 921.6 299.68 T 1228.8 347.34 T 1536 275.41 L 1536 0 Z" style="fill:url('#lg-o578w6yh81n');opacity:0.4;;animation:none"></path>
<path opacity="0.4" fill="url(#lg-o578w6yh81n)" d="M 0 0 L 0 434.509 Q 153.6 422.759 307.2 397.939 T 614.4 347.498 T 921.6 283.993 T 1228.8 227.005 T 1536 227.382 L 1536 0 Z" style="fill:url('#lg-o578w6yh81n');opacity:0.4;;animation:none"></path>
<path opacity="0.4" fill="url(#lg-o578w6yh81n)" d="M 0 0 L 0 445.531 Q 153.6 490.511 307.2 466.29 T 614.4 311.229 T 921.6 339.341 T 1228.8 263.134 T 1536 214.558 L 1536 0 Z" style="fill:url('#lg-o578w6yh81n');opacity:0.4;;animation:none"></path>
<path opacity="0.4" fill="url(#lg-o578w6yh81n)" d="M 0 0 L 0 475.429 Q 153.6 413.259 307.2 388.538 T 614.4 405.919 T 921.6 316.353 T 1228.8 344.573 T 1536 271.349 L 1536 0 Z" style="fill:url('#lg-o578w6yh81n');opacity:0.4;;animation:none"></path>
<path opacity="0.4" fill="url(#lg-o578w6yh81n)" d="M 0 0 L 0 497.57 Q 153.6 427.738 307.2 406.391 T 614.4 342.294 T 921.6 351.691 T 1228.8 221.567 T 1536 174.152 L 1536 0 Z" style="fill:url('#lg-o578w6yh81n');opacity:0.4;;animation:none"></path>
<g></g></g><!-- [ldio] generated by https://loading.io --></svg>